# xmcd
#
# Track frame offsets: 
#        150
#        17783
#        34290
#        57674
#        87887
#        110772
#        144062
#        172395
#        189132
#        201057
#
# Disc length: 2891 seconds
#
# Revision: 0
# Processed by: cddbd v1.5.2PL0 Copyright (c) Steve Scherf et al.
# Submitted via: ExactAudioCopy v0.99pb5
#
DISCID=8a0b490a
DTITLE=Repossession - The Lumberjack Cowboy Heartbreak Trucking Co.
DYEAR=2009
DGENRE=Country
TTITLE0=Promised Land
TTITLE1=Concrete and Barbed Wire
TTITLE2=High Walls, High Fences
TTITLE3=Big Stick, Little Stick
TTITLE4=I Want You More
TTITLE5=Rap Star
TTITLE6=One More Time
TTITLE7=Meat's On The Beat
TTITLE8=Truckers Theme
TTITLE9=That's Stupid
EXTD=
EXTT0=
EXTT1=
EXTT2=
EXTT3=
EXTT4=
EXTT5=
EXTT6=
EXTT7=
EXTT8=
EXTT9=
PLAYORDER=
